<svg width="8" height="13" viewBox="0 0 8 13" fill="none" xmlns="http://www.w3.org/2000/svg">
<path d="M2.82156 8.496V5.952C3.68556 5.90933 4.3469 5.728 4.80556 5.408C5.2749 5.07733 5.50956 4.592 5.50956 3.952V3.728C5.50956 3.23733 5.36023 2.85867 5.06156 2.592C4.7629 2.31467 4.3629 2.176 3.86156 2.176C3.32823 2.176 2.90156 2.33067 2.58156 2.64C2.26156 2.94933 2.0429 3.344 1.92556 3.824L0.405563 3.216C0.501563 2.88533 0.640229 2.56533 0.821563 2.256C1.01356 1.94667 1.25356 1.67467 1.54156 1.44C1.82956 1.19467 2.1709 1.00267 2.56556 0.863999C2.96023 0.714666 3.41356 0.639999 3.92556 0.639999C4.44823 0.639999 4.9229 0.714666 5.34956 0.863999C5.77623 1.01333 6.1389 1.22667 6.43756 1.504C6.73623 1.77067 6.96556 2.10133 7.12556 2.496C7.28556 2.88 7.36556 3.30667 7.36556 3.776C7.36556 4.256 7.28023 4.688 7.10956 5.072C6.94956 5.44533 6.7309 5.76533 6.45356 6.032C6.1869 6.29867 5.8829 6.51733 5.54156 6.688C5.20023 6.848 4.84823 6.96 4.48556 7.024V8.496H2.82156ZM3.66956 12.192C3.26423 12.192 2.96556 12.096 2.77356 11.904C2.59223 11.7013 2.50156 11.4453 2.50156 11.136V10.864C2.50156 10.5547 2.59223 10.304 2.77356 10.112C2.96556 9.90933 3.26423 9.808 3.66956 9.808C4.0749 9.808 4.36823 9.90933 4.54956 10.112C4.74156 10.304 4.83756 10.5547 4.83756 10.864V11.136C4.83756 11.4453 4.74156 11.7013 4.54956 11.904C4.36823 12.096 4.0749 12.192 3.66956 12.192Z" fill="black"/>
</svg>
